<svg xmlns="http://www.w3.org/2000/svg" width="30.445" height="28.786" viewBox="0 0 30.445 28.786"><defs><style>.a{fill:#002476;}.b{fill:#00a0e4;stroke:#00a0e4;stroke-width:0.5px;}</style></defs><g transform="translate(0.25)"><path class="a" d="M16.125,6.128H9.885V.636A.636.636,0,0,0,8.8.187L.186,8.8A.636.636,0,0,0,0,9.25v.058a.636.636,0,0,0,.186.45L8.8,18.371a.635.635,0,0,0,1.085-.45V12.429h6.24a.636.636,0,0,0,.636-.636V6.764A.636.636,0,0,0,16.125,6.128Z" transform="translate(30.195 18.557) rotate(180)"/><path class="b" d="M16.574,8.8,7.96.186a.636.636,0,0,0-1.086.45V6.128H.636A.636.636,0,0,0,0,6.764v5.029a.636.636,0,0,0,.636.636H6.875v5.492a.636.636,0,0,0,1.086.45l8.614-8.614a.636.636,0,0,0,.186-.45V9.25A.637.637,0,0,0,16.574,8.8ZM8.147,2.171Z" transform="translate(16.76 28.524) rotate(180)"/></g></svg>
