<svg xmlns="http://www.w3.org/2000/svg" width="36.319" height="28.991" viewBox="0 0 36.319 28.991"><defs><style>.a{fill:#00a0e4;}.b{fill:#1b6db0;}</style></defs><g transform="translate(0)"><g transform="translate(0 0)"><path class="a" d="M27.993,9.287H10.5A.712.712,0,0,0,9.792,10V24.941L6.171,26.058a.712.712,0,0,1-.206,0,.712.712,0,0,1-.712-.505L-.013,8.127a.712.712,0,0,1,.477-.889L24.45-.013a.7.7,0,0,1,.882.477Z" transform="translate(0.044 0.045)"/><g transform="translate(9.836 9.331)"><path class="b" d="M39.552,13.07H14.492a.712.712,0,0,0-.712.712V32.018a.712.712,0,0,0,.712.712h25.06a.712.712,0,0,0,.712-.712V13.782A.712.712,0,0,0,39.552,13.07ZM15.239,14.493h23.6v3.38H15.2Zm23.6,16.813H15.2V20.719H38.84Z" transform="translate(-13.78 -13.07)"/></g><g transform="translate(13.038 21.413)"><circle class="b" cx="2.312" cy="2.312" r="2.312"/><circle class="b" cx="2.312" cy="2.312" r="2.312" transform="translate(3.913)"/></g></g></g></svg>