<svg xmlns="http://www.w3.org/2000/svg" width="35.931" height="31.407" viewBox="0 0 35.931 31.407"><defs><style>.a{fill:#1b6db0;}.b{fill:#00a0e4;}</style></defs><g transform="translate(0)"><path class="a" d="M28.891,20.27H24A2.432,2.432,0,0,0,21.57,22.7v3.749A2.432,2.432,0,0,0,24,28.884h4.889a2.432,2.432,0,0,0,2.432-2.432V22.7A2.432,2.432,0,0,0,28.891,20.27Zm.642,6.181a.667.667,0,0,1-.667.667H24a.667.667,0,0,1-.667-.667V22.7A.659.659,0,0,1,24,22.043h4.889a.659.659,0,0,1,.667.659Z" transform="translate(-3.355 -3.153)"/><path class="a" d="M33.419,17.815a4.374,4.374,0,0,1-1.756.414V32.441H17.113V22.916a3.032,3.032,0,0,0-3.04-3.032H11.539A3.032,3.032,0,0,0,8.5,22.916V32.45H5.375V18.229A3.969,3.969,0,0,1,3.61,17.79V33.328a.844.844,0,0,0,.844.844H32.549a.844.844,0,0,0,.844-.844V17.9A.262.262,0,0,0,33.419,17.815ZM15.356,32.441H10.29V22.916a1.258,1.258,0,0,1,1.25-1.258h2.533a1.258,1.258,0,0,1,1.258,1.258Z" transform="translate(-0.562 -2.766)"/><path class="b" d="M35.931,12.9a5.193,5.193,0,0,1-1.782,3.378h0l-.051.042a1.157,1.157,0,0,1-.169.135,5.337,5.337,0,0,1-1.064.625h0a4.374,4.374,0,0,1-1.756.414h-.3a5.16,5.16,0,0,1-4.281-2.28,5.143,5.143,0,0,1-8.546,0,5.168,5.168,0,0,1-8.571,0,5.143,5.143,0,0,1-4.281,2.28H4.813a3.969,3.969,0,0,1-1.765-.439A5.134,5.134,0,0,1,0,12.9Z" transform="translate(0 -2.005)"/><path class="b" d="M35.557,9.872H.58L5.512.448A.844.844,0,0,1,6.28,0H29.815a.912.912,0,0,1,.768.448Z" transform="translate(-0.09 0)"/></g></svg>