<svg xmlns="http://www.w3.org/2000/svg" width="40.058" height="30.584" viewBox="0 0 40.058 30.584"><defs><style>.a{fill:#00a0e4;}.b{fill:#1b6db0;}</style></defs><g transform="translate(0)"><g transform="translate(0 3.602)"><g transform="translate(0 0.005)"><g transform="translate(0 2.295)"><path class="a" d="M46.1,8.084V14.9a.743.743,0,0,1-.743.743H36.333a.744.744,0,0,1-.743-.743V8.084Z" transform="translate(-35.59 -8.084)"/></g><g transform="translate(0.001)"><path class="a" d="M35.59,6.9V6.091a.744.744,0,0,1,.743-.743h9.026a.744.744,0,0,1,.743.743V6.9H35.59Z" transform="translate(-35.59 -5.348)"/></g></g><g transform="translate(3.806 0)"><path class="b" d="M40.127,6.9h2.9L42.17,5.342H40.986Z" transform="translate(-40.127 -5.342)"/></g><g transform="translate(3.805 2.3)"><rect class="b" width="2.904" height="2.584"/></g></g><g transform="translate(3.682 24.302)"><path class="b" d="M36.984,36.3a4.878,4.878,0,0,0,4.67-6.282l-1.606.487a3.2,3.2,0,1,1-6.13.005l-1.609-.477A4.88,4.88,0,0,0,36.984,36.3Z" transform="translate(-32.108 -30.015)"/></g><g transform="translate(29.676 21.664)"><path class="b" d="M6,35.791a4.877,4.877,0,0,0,2.726-8.92l-.939,1.391a3.2,3.2,0,1,1-4.651,1.227l-1.5-.749a4.829,4.829,0,0,0-.511,2.175A4.882,4.882,0,0,0,6,35.791Z" transform="translate(-1.126 -26.871)"/></g><g transform="translate(26.333 15.692)"><path class="b" d="M2.721,29.562l.489-.007a4.474,4.474,0,0,0,2.061-.746,10.2,10.2,0,0,1,3.1-1.217,12.344,12.344,0,0,1,2.282-.239,5.506,5.506,0,0,1,1.685.219,1.286,1.286,0,0,0,.372.055A1.442,1.442,0,0,0,14,26.7l.056-.211c.229-1.718-.275-5.252-3.822-6.328a9.131,9.131,0,0,0-2.64-.4A6.99,6.99,0,0,0,.475,25.532C.25,27.223.4,28.264.964,28.905A2.224,2.224,0,0,0,2.721,29.562Zm7.936-3.886a14,14,0,0,0-2.6.268,11.8,11.8,0,0,0-3.591,1.393,3.857,3.857,0,0,1-1.258.541l-.489.007c-.282,0-.444-.028-.493-.085s-.3-.437-.088-2.046a5.311,5.311,0,0,1,5.453-4.322,7.43,7.43,0,0,1,2.154.332,3.912,3.912,0,0,1,2.673,4.093A7.764,7.764,0,0,0,10.657,25.675Z" transform="translate(-0.375 -19.753)"/></g><g transform="translate(14.701 23.357)"><rect class="b" width="12.78" height="1.678"/></g><g transform="translate(2.585 13.023)"><path class="b" d="M33.227,26.161l.083,0,6.989-.191-.046-1.678-6.9.189c-.508-.108-3.339-.835-3.053-3.483.053-.494.1-.919.145-1.283.2-1.706.263-2.281-.179-2.761a1.542,1.542,0,0,0-1.309-.374l-.146.005c-1.171.033-10.58-.011-10.675-.012-.981.008-2.024.5-2.024,1.547a2.16,2.16,0,0,0,.647,1.453c-.47,1.089-1.34,3.375-1.138,4.928l1.663-.216c-.164-1.264.849-3.73,1.253-4.573l.32-.669-.623-.4a1.48,1.48,0,0,1-.368-.357,1.524,1.524,0,0,1,.279-.035c.373,0,9.52.044,10.713.011l.053,0c-.023.31-.076.764-.133,1.261-.043.368-.091.8-.146,1.3-.383,3.534,2.78,5.033,4.508,5.332Z" transform="translate(-15.595 -16.571)"/></g><g transform="translate(1.432 17.583)"><path class="b" d="M41.947,30.093a1.7,1.7,0,0,0,1.4-.666,2.342,2.342,0,0,0,.143-2.155c-1.059-3.346-3.5-5.265-6.708-5.265a7.182,7.182,0,0,0-7.29,5.829,1.862,1.862,0,0,0,.275,1.651,1.718,1.718,0,0,0,1.338.6l10.719,0C41.858,30.09,41.9,30.093,41.947,30.093Zm.029-1.679h-.029v.839l-.009-.84L31.1,28.407a1.089,1.089,0,0,1,.029-.2,5.5,5.5,0,0,1,5.655-4.526c3.153,0,4.519,2.226,5.109,4.094a1.5,1.5,0,0,1,.1.638A.052.052,0,0,0,41.977,28.414Z" transform="translate(-29.425 -22.006)"/></g><g transform="translate(10.514 9.96)"><path class="b" d="M33.538,16.822s1.648-2.817-.023-3.515c-1.464-.612-4.26-.339-4.984-.245a1.344,1.344,0,0,0-1.173,1.487c.005,1.055,0,2.019,0,2.019Z" transform="translate(-27.359 -12.921)"/></g><g transform="translate(24.258 7.809)"><path class="b" d="M13.829,24.314a14.915,14.915,0,0,1,2.761-5.993c2.3-3.033,1.251-7.763,1.2-7.964l-1.636.374c.009.041.918,4.171-.906,6.575A16.321,16.321,0,0,0,12.17,24.06Z" transform="translate(-12.17 -10.357)"/></g><g transform="translate(31.258 7.528)"><rect class="b" width="1.678" height="8.561" transform="matrix(-0.996, 0.085, -0.085, -0.996, 2.399, 8.53)"/></g><g transform="translate(26.643 0)"><path class="b" d="M11.376,10.553h.264a3.459,3.459,0,0,0,3.378-3.526V4.576A3.459,3.459,0,0,0,11.64,1.049h-.264A3.459,3.459,0,0,0,8,4.576H9.676a1.781,1.781,0,0,1,1.7-1.849h.264a1.781,1.781,0,0,1,1.7,1.849V7.027a1.781,1.781,0,0,1-1.7,1.848h-.264a1.781,1.781,0,0,1-1.7-1.848H8A3.457,3.457,0,0,0,11.376,10.553Z" transform="translate(-7.998 -1.049)"/></g><g transform="translate(21.43 2.298)"><path class="b" d="M13.45,8.785h5.515c1.052,0,1.846-1.074,1.846-2.5s-.794-2.5-1.846-2.5H13.45c-1.052,0-1.846,1.074-1.846,2.5S12.4,8.785,13.45,8.785ZM18.9,7.107H13.515a1.29,1.29,0,0,1-.232-.821,1.29,1.29,0,0,1,.232-.821H18.9a1.3,1.3,0,0,1,.232.821A1.292,1.292,0,0,1,18.9,7.107Z" transform="translate(-11.604 -3.788)"/></g><g transform="translate(32.331 1.915)"><path class="b" d="M6.756,9.583a2.276,2.276,0,0,0,.868-.16A1.745,1.745,0,0,0,8.643,8.385l.036-.174a10.526,10.526,0,0,0-.266-3.986,1.43,1.43,0,0,0-.9-.818c-1.082-.337-2.607.547-3.048.826l.9,1.42a4.466,4.466,0,0,1,1.556-.647,10.116,10.116,0,0,1,.11,2.88c-.109.043-.626.138-1.817-.5L4.418,8.871A5.136,5.136,0,0,0,6.756,9.583Z" transform="translate(-4.418 -3.332)"/></g></g></svg>