<svg xmlns="http://www.w3.org/2000/svg" width="41.143" height="31.322" viewBox="0 0 41.143 31.322"><defs><style>.a{fill:#00a0e4;}.b{fill:#1b6db0;}</style></defs><g transform="translate(0 0)"><path class="a" d="M26.678,2.63V23.367H25.019v.058H11.7a2.994,2.994,0,0,0-.274-.29,4.712,4.712,0,0,0-3.318-1.36,4.893,4.893,0,0,0-.688.05,4.7,4.7,0,0,0-2.646,1.311,3,3,0,0,0-.274.29H.2V14.707H9.325v3.011a.282.282,0,0,0,.207.257.423.423,0,0,0,.373-.058l6.81-5.475a.257.257,0,0,0,.1-.2.232.232,0,0,0-.1-.191L9.9,6.586a.373.373,0,0,0-.373-.058.282.282,0,0,0-.207.249v3H.2V2.63A2.63,2.63,0,0,1,2.838,0h21.2a2.63,2.63,0,0,1,2.638,2.63Z" transform="translate(-0.034 0)"/><path class="b" d="M41.011,16.807,35.088,7.583a.83.83,0,0,0-.7-.373H26.644V8.869h7.3l.207.324H29.8a1.5,1.5,0,0,0-1.5,1.5v5.889a1.5,1.5,0,0,0,1.5,1.5h9.672v8.03a.83.83,0,0,1-.83.83h-.83a4.77,4.77,0,0,0-9.4,0H26.677V24.6H25.018v2.347H12.766a4.7,4.7,0,0,0-1.1-2.289,3,3,0,0,0-.274-.29A4.712,4.712,0,0,0,8.071,23a4.894,4.894,0,0,0-.688.05,4.7,4.7,0,0,0-2.646,1.311,3,3,0,0,0-.274.29,4.678,4.678,0,0,0-1.095,2.289H.83a.83.83,0,1,0,0,1.659H3.368a4.728,4.728,0,0,0,4.678,3.948,4.914,4.914,0,0,0,.7-.05,4.736,4.736,0,0,0,4.024-3.9H28.377a4.786,4.786,0,0,0,4.687,3.94,4.914,4.914,0,0,0,.7-.05A4.728,4.728,0,0,0,37.776,28.6H39.31a1.833,1.833,0,0,0,1.833-1.825V17.247A.83.83,0,0,0,41.011,16.807Zm-2.231-.382H30.335a.39.39,0,0,1-.382-.382V11.183a.373.373,0,0,1,.373-.373h4.9l3.559,5.558ZM8.088,30.9a3.144,3.144,0,0,1-2.712-1.568,3.318,3.318,0,0,1,.116-3.4,2.24,2.24,0,0,1,.755-.747,3.642,3.642,0,0,1,1.841-.531,3.127,3.127,0,1,1,0,6.246Zm25.01,0a3.136,3.136,0,0,1-2.712-1.576,3.318,3.318,0,0,1,.124-3.393,2.14,2.14,0,0,1,.747-.747,3.642,3.642,0,0,1,1.841-.531,3.127,3.127,0,1,1,0,6.246Z" transform="translate(0 -1.229)"/></g></svg>